<?xml version="1.0" encoding="UTF-8" standalone="no"?>
<svg width="36px" height="36px" viewBox="0 0 36 36" version="1.1" xmlns="http://www.w3.org/2000/svg" xmlns:xlink="http://www.w3.org/1999/xlink">
    <!-- Generator: Sketch 3.8.2 (29753) - http://www.bohemiancoding.com/sketch -->
    <title>icon_search</title>
    <desc>Created with Sketch.</desc>
    <defs></defs>
    <g id="marketing" stroke="none" stroke-width="1" fill="none" fill-rule="evenodd">
        <g id="icon_search" fill="#ffffff">
            <path d="M16.5,26 C21.7467051,26 26,21.7467051 26,16.5 C26,11.2532949 21.7467051,7 16.5,7 C11.2532949,7 7,11.2532949 7,16.5 C7,21.7467051 11.2532949,26 16.5,26 L16.5,26 Z M16.5,24 C12.3578644,24 9,20.6421356 9,16.5 C9,12.3578644 12.3578644,9 16.5,9 C20.6421356,9 24,12.3578644 24,16.5 C24,20.6421356 20.6421356,24 16.5,24 L16.5,24 Z" id="Shape"></path>
            <rect id="Rectangle-601" transform="translate(25.483264, 25.648761) rotate(-45.000000) translate(-25.483264, -25.648761) " x="24.483264" y="21.648761" width="2" height="8" rx="1"></rect>
        </g>
    </g>
</svg>
